<svg width="256" height="256" viewBox="0 0 256 256" fill="none" xmlns="http://www.w3.org/2000/svg">
<path d="M124.587 140.063C113.368 150.108 102.396 159.837 91.5336 169.688C85.2409 175.394 79.1736 181.348 72.8955 187.07C71.2234 188.633 69.302 189.904 67.2105 190.829C66.1791 191.262 63.952 190.829 63.4441 190.036C62.772 188.983 62.9707 187.114 63.3352 185.74C63.6004 184.738 64.6802 183.909 65.4947 183.104C80.9853 167.852 96.483 152.61 111.987 137.377C113.727 135.669 115.517 134.012 117.516 132.115C110.74 124.606 103.954 117.36 97.4756 109.845C87.136 97.8447 77.0039 85.6664 66.7862 73.5626C66.4147 73.1227 66.0952 72.6413 65.7204 72.2014C63.9323 70.0877 62.6717 67.8095 64.7077 65.2456C66.2323 63.3258 69.8769 63.6126 72.4147 66.2241C78.7351 72.7263 84.8919 79.386 90.9972 86.0968C102.145 98.3434 113.206 110.67 124.315 122.953C124.79 123.399 125.296 123.813 125.828 124.19C134.417 115.98 142.912 107.797 151.477 99.6846C161.411 90.2808 171.379 80.914 181.382 71.5841C185.135 68.0772 188.143 67.445 190.446 69.4912C192.833 71.6109 192.611 75.1524 188.805 78.9494C178.515 89.2166 167.977 99.2344 157.449 109.263C149.429 116.906 141.281 124.417 132.745 132.4C139.681 139.574 146.315 146.724 153.271 153.544C159.951 160.095 167.005 166.266 173.817 172.681C176.48 175.095 178.973 177.691 181.28 180.449C183.141 182.764 183.416 185.637 181.129 187.919C178.875 190.171 176.265 189.375 174.091 187.671C169.933 184.581 165.946 181.264 162.15 177.736C150.53 166.356 139.114 154.766 127.624 143.252C126.715 142.343 125.847 141.389 124.587 140.063Z" fill="black"/>
</svg>
