<svg width="256" height="256" viewBox="0 0 256 256" fill="none" xmlns="http://www.w3.org/2000/svg">
<path d="M113.491 134.052C126.404 121.23 140.426 109.054 152.556 98.645C158.071 93.8887 163.121 88.6207 167.642 82.9112C168.05 82.4016 168.581 81.7219 169.074 80.9917C169.589 80.3446 169.851 79.5331 169.812 78.7073C169.775 77.8814 169.438 77.0975 168.866 76.5008C168.36 75.9127 167.659 75.5275 166.892 75.4161C166.124 75.3047 165.342 75.4748 164.69 75.8949C163.386 76.5968 162.146 77.4139 160.986 78.3362C157.25 81.3855 153.575 84.4921 150.474 87.1293C133.636 101.411 117.568 116.575 102.338 132.559C99.7392 135.293 97.3776 138.319 95.0934 141.243C94.0675 142.557 93.0064 143.916 91.9408 145.226C88.759 149.139 87.4687 153.913 87.996 159.824C88.5168 165.66 91.4599 170.958 95.8667 173.996C99.9384 176.804 104.963 177.48 110.397 175.949C114.799 174.766 118.921 172.721 122.525 169.931C123.582 169.094 124.643 168.259 125.708 167.427C130.721 163.496 135.909 159.433 140.469 154.865C152.316 143.006 164.131 130.718 175.555 118.84C178.68 115.592 181.805 112.344 184.933 109.099C188.417 105.53 191.265 101.39 193.353 96.8597C197.081 88.6452 197.86 80.965 195.735 73.3799C193.513 65.4498 188.23 58.6528 181.602 55.198C175.288 51.9047 167.843 51.6014 160.08 54.3149C153.401 56.6917 147.106 60.0348 141.398 64.2378C129.013 73.1826 119.516 81.0542 111.51 89.0097C98.542 101.897 85.4391 115.083 72.7685 127.833L70.2241 130.393C65.4208 135.227 62.586 140.197 61.5562 145.59C60.9782 148.62 60.5706 151.726 60.1774 154.729C59.9997 156.083 59.8228 157.437 59.6301 158.787C59.6094 158.932 59.637 159.081 59.7086 159.208C59.7802 159.336 59.8918 159.438 60.0264 159.496C60.0264 159.675 60.0211 159.855 60.0185 160.035C60.0048 160.887 59.991 161.769 60.0496 162.646C60.0958 163.343 60.2104 164.03 60.3204 164.694C60.3914 165.123 60.4632 165.552 60.5159 165.984C62.2253 180.001 69.7866 191.035 82.9903 198.781C87.2958 201.281 92.1974 202.569 97.1757 202.509C98.3764 202.507 99.5762 202.442 100.77 202.314C108.399 201.515 115.187 198.464 120.819 195.585C130.822 190.537 140.182 184.307 148.699 177.029C157.592 169.343 166.413 161.278 174.942 153.483C177.119 151.493 179.297 149.505 181.476 147.517C184.772 144.514 187.868 141.39 191.285 137.909C192.368 136.836 193.256 135.583 193.91 134.205C195.012 131.756 194.756 129.5 193.184 127.854C191.346 125.925 189.066 125.432 186.931 126.504C185.067 127.348 183.325 128.439 181.752 129.746C173.104 137.583 164.602 145.474 157.425 152.16C149.167 159.852 141.015 167.293 132.085 173.769C124.347 179.38 115.838 185.107 106.056 188.981C96.3829 192.811 88.0605 190.957 80.617 183.318C74.7826 177.33 71.6496 170.587 71.0404 162.715C70.129 150.898 72.4963 143.174 78.9673 136.886C86.8093 129.267 94.6494 121.389 102.232 113.77C106.93 109.05 111.788 104.168 116.597 99.3974C124.578 91.4803 133.632 83.8385 145.09 75.3487C149.915 71.7735 156.436 67.3483 164.098 64.8418C168.375 63.4438 171.67 63.3215 174.788 64.4436C181.548 66.8798 187.031 76.2202 186.07 83.6621C185.25 90.0159 182.495 95.6824 177.65 100.986C174.669 104.25 171.586 107.451 168.698 110.424C165.704 113.507 162.714 116.596 159.729 119.691C151.561 128.146 143.115 136.89 134.626 145.3C129.953 149.93 124.779 154.233 119.776 158.395C118.791 159.213 117.807 160.034 116.824 160.854C113.906 163.32 110.508 165.153 106.845 166.238C103.16 167.322 100.444 166.312 98.77 163.237C96.5906 159.23 96.5196 155.605 98.5525 152.157C102.638 145.224 108.145 139.358 113.491 134.052Z" fill="black"/>
</svg>
